<?xml version="1.0" encoding="utf-8"?>
<!-- Generator: Adobe Illustrator 26.0.2, SVG Export Plug-In . SVG Version: 6.00 Build 0)  -->
<svg version="1.1" id="레이어_1" xmlns="http://www.w3.org/2000/svg" xmlns:xlink="http://www.w3.org/1999/xlink" x="0px"
	 y="0px" viewBox="0 0 604 120" style="enable-background:new 0 0 604 120;" xml:space="preserve">
<style type="text/css">
	.st0{fill:#FFFFFF;}
	.st1{fill:#F0BFC9;}
	.st2{fill:none;stroke:#C1BDBB;stroke-width:3;}
	.st3{fill:#C1BDBB;stroke:#FFFFFF;stroke-width:3;stroke-miterlimit:10;}
</style>
<g>
	<path class="st0" d="M60,118.5C27.74,118.5,1.5,92.26,1.5,60S27.74,1.5,60,1.5h484c32.26,0,58.5,26.24,58.5,58.5
		s-26.24,58.5-58.5,58.5H60z"/>
	<path class="st1" d="M544,3c31.43,0,57,25.57,57,57c0,31.43-25.57,57-57,57H60C28.57,117,3,91.43,3,60C3,28.57,28.57,3,60,3H544
		 M544,0H60C26.86,0,0,26.86,0,60v0c0,33.14,26.86,60,60,60h484c33.14,0,60-26.86,60-60v0C604,26.86,577.14,0,544,0L544,0z"/>
</g>
<line class="st2" x1="481.84" y1="14.76" x2="481.84" y2="104.86"/>
<path class="st3" d="M524.12,54.67c0-6.51,5.3-11.81,11.81-11.81c6.51,0,11.81,5.3,11.81,11.81c0,6.51-5.3,11.81-11.81,11.81
	C529.42,66.48,524.12,61.18,524.12,54.67 M562.99,76.41l-11.04-11.04c2.51-3.73,3.75-8.39,3.09-13.35
	c-1.13-8.44-8.05-15.32-16.5-16.39c-12.57-1.59-23.13,8.98-21.54,21.54c1.07,8.46,7.94,15.38,16.39,16.51
	c4.96,0.66,9.62-0.58,13.35-3.09l11.04,11.04c1.44,1.44,3.78,1.44,5.22,0C564.43,80.2,564.43,77.85,562.99,76.41"/>
</svg>
