<?xml version="1.0" encoding="utf-8"?>
<!-- Generator: Adobe Illustrator 24.3.0, SVG Export Plug-In . SVG Version: 6.00 Build 0)  -->
<svg version="1.1" id="Layer_1" xmlns="http://www.w3.org/2000/svg" xmlns:xlink="http://www.w3.org/1999/xlink" x="0px" y="0px"
	 viewBox="0 0 470.2 661.3" style="enable-background:new 0 0 470.2 661.3;" xml:space="preserve">
<style type="text/css">
	.st0{fill:#FFFFFF;stroke:#EEEDEC;stroke-width:2.73;}
	.st1{enable-background:new    ;}
	.st2{fill:#E1DEDD;}
</style>
<g>
	<polygon class="st0" points="91.5,1.4 1.4,91.5 1.4,569.9 91.5,660 378.8,660 468.8,569.9 468.8,91.5 378.8,1.4 	"/>
	<g class="st1">
		<path class="st2" d="M128.7,139.5h5.6c14.1,6.4,21.7,11.6,22.9,15.5c0.8,2.5-1.9,5.7-8.1,9.4c-2.7,17.8-6,33.5-9.9,47.2
			c-3.9,13.7-8.4,25.9-13.4,36.6c7.8,4.9,13.9,9.9,18.3,15c5.1,5.9,7.7,11.8,7.9,17.5c-0.3,3.5-1.6,6.8-3.8,9.6s-4.8,4.7-7.9,5.6
			c-3.2,1-6.1,0.7-8.6-1c-2.7-1.7-4.6-4.7-5.6-9.1c-1-3.7-2.5-7.4-4.3-10.9c-1.7-3.5-3.6-6.9-5.8-10.1
			c-7.1,10.3-15.8,19.6-26.1,27.9c-8.8,7.1-19.7,14.1-32.7,21.1l-2-3.3c10.5-5.6,19.9-13.8,28.2-24.6c7.8-10,14.6-22.4,20.6-37.3
			c-2.9-3.2-5.6-5.9-8.1-8.1c-2.9-2.4-5.4-4.1-7.6-5.1l-1.3,2.8c-1.2,3.2-2.5,5.2-4.1,6.1c-2.5,1.5-7,2-13.4,1.5
			c-5.1-0.5-8-2-8.6-4.6c-0.5-1.9,0-6.1,1.5-12.7l1.8-6.6l14.2-65.2h-2.8l-19,1.3l-2.8-8.1l24.4,1.3h1.3c3.4-16.2,5.9-29.5,7.6-39.9
			c1.9-11.3,2.6-19.1,2.3-23.4l2.8-2.3c8.8,2.4,15.6,4.7,20.3,6.9c4.1,1.9,6.6,3.6,7.6,5.3c0.7,1.4,0.3,2.9-1,4.6
			c-0.9,0.9-2.7,2.3-5.6,4.3l-0.5,0.5l-8.9,43.9h17.8L128.7,139.5z M102.3,156.5l-13.7,73.6c3.6,1.4,6.5,2.5,8.9,3.5
			c3.6,1.5,6.9,3,9.9,4.6c3.7-11.8,7-24.6,9.9-38.3c2.7-13.5,4.9-28,6.6-43.4L102.3,156.5L102.3,156.5z M261.4,154
			c15.1,11.2,22.2,22.1,21.3,32.8c-0.5,3.9-2.1,7.3-4.8,10.1c-2.5,2.4-5.5,3.8-8.9,4.3c-3.4,0.5-6.4-0.2-8.9-2
			c-2.7-2.2-4.3-5.4-4.8-9.6l-4.8-10.7l-7.4,1.3c-16.2,3.4-28.8,6-37.6,7.9c-15.4,3.2-26.8,5.8-34.3,7.6c-2.4,2-4.2,3-5.6,2.8
			c-1.7-0.3-3.1-2.4-4.1-6.1l-9.4-23.1H179c3.4-10.3,6.1-24.6,8.1-42.9c1.9-16.2,2.6-29.1,2.3-38.6l3.1-2
			c21.1,5.6,33,10.5,35.5,14.7c1.9,2.7-0.7,5.6-7.6,8.6c-3.7,9.5-8.5,20.1-14.5,31.7c-6.6,12.7-12.4,22.4-17.3,29.2l59.2,0.8
			c-2.9-5.2-7-11.1-12.4-17.5c-5.6-6.9-10.8-12.2-15.5-15.7l1.8-2.5C234.9,137.8,248.2,144.2,261.4,154z M238.8,207h5.3
			c14,6.1,22.2,11.1,24.4,15c1.9,3.4-0.4,7.2-6.9,11.4c0.2,8,0.5,16,1,24.1c0.2,4.6,0.5,10.8,1,18.5c0.7,9.1,1,15.3,1,18.5
			c0.2,4.9-0.2,8.5-1,10.9c-0.9,2.4-2.4,4.1-4.6,5.3c-2,1-5.2,1.8-9.4,2.3c-6.6,0.7-10.8,0.1-12.4-1.8c-1.2-1.4-1.8-5-1.8-10.9v-5.1
			h-49.2v1.8c0,7.6-0.7,12.4-2,14.2c-1.7,2.2-6.3,3.6-13.7,4.3c-5.8,0.3-9.3-0.6-10.7-2.8c-0.9-1.7-1.2-6.4-1-14l0.2-0.5l0.5-20.6
			c0.7-17.6,1.1-30.6,1.3-39.1c0.3-14.5,0.4-24,0.2-28.4l4.3-2.8l23.9,10.1h43.2L238.8,207z M186.3,223.5v66h49.8v-66H186.3z"/>
	</g>
	<g class="st1">
		<path class="st2" d="M228.1,476.2c-5.1,5.8-10.7,11.7-16.8,17.8l-4.8-3.8c13.2-16.9,24.1-39.9,32.8-68.8
			c7.3-24.5,10.5-42.8,9.6-54.8l2.3-2.5c21.5,3.9,34,8.5,37.6,13.7c2.7,4.1,0.4,7.3-6.9,9.6c-1.2,2.5-3.5,7.4-6.9,14.5
			c-2,4.1-5.2,10.3-9.4,18.8l-2.5,5.3c6.8,2.7,10.4,5.5,10.9,8.4c0.3,2.2-1.4,4.7-5.1,7.6v117.5v13.7c0.2,7.5-0.5,12-2,13.7
			c-1.7,2-6.6,3.5-14.7,4.6c-6.6,0.2-10.5-1.1-11.7-3.8c-1-2.2-1.2-8.8-0.5-19.8c0.3-5.9,0.6-10.8,0.8-14.5c0.2-6.4,0.3-12.8,0.5-19
			l0.8-75.4C238.4,464.2,233.7,470,228.1,476.2z M402.3,399.6h4.6c8.1,4.6,14.1,8.7,18,12.4c5.1,4.7,6.7,8.7,4.8,11.9h-75.9v43.9h33
			l10.9-17.8h5.6c7.8,4.7,13.1,8.7,16,11.9c3.5,3.9,4.5,7.6,2.8,11.2h-67.8v47.5h36.8l11.7-18h4.6c8,4.7,13.8,9.1,17.5,13.2
			c3.7,4.4,4.7,7.9,3,10.4h-73.1v42.7l0.2,7.9c0.3,5.1-0.1,8.2-1.3,9.4c-1.5,1.7-5.7,3-12.4,3.8c-7.5,0.7-12-0.1-13.7-2.3
			c-1.2-1.7-1.5-6.1-1-13.2l0.5-12.4V424h-2c-5.2,9.3-11.9,19.2-19.8,29.7c-10.1,13-19.8,23.4-28.9,31.2l-4.6-4.1
			c10.8-11.3,20.8-30.7,30-58.1c8-24.5,11.9-43.7,11.9-57.4l4.1-3.3c20.5,3.9,32.5,7.8,36,11.7c2.9,3,0.2,6.3-8.1,9.6l-4.1,7.9
			c-3,5.9-5.3,10.5-6.9,13.7c-2.7,5.2-4.9,9.9-6.6,14h60.9L402.3,399.6z"/>
	</g>
	<g class="st1">
		<path class="st2" d="M306.9,263.5c-0.2,1.5-0.6,3-1.2,4.5c-0.5,1.5-1.2,3-2,4.4c0.6,0.4,1.3,0.9,2.1,1.4c0.8,0.5,1.6,1.1,2.4,1.7
			c0.8,0.6,1.6,1.2,2.4,1.9s1.5,1.3,2.2,2v5.4l-1.8,0.4c-0.6-0.8-1.4-1.6-2.1-2.4c-0.8-0.8-1.6-1.6-2.4-2.5s-1.6-1.6-2.4-2.3
			c-0.8-0.8-1.6-1.4-2.4-2c-1.3,2-2.7,3.8-4.2,5.5s-3,3.3-4.6,4.6l-2.1-1.4l0.1-1c1.3-1.5,2.6-3.2,3.7-5s2.1-3.6,3-5.4
			s1.6-3.7,2.2-5.6c0.6-1.9,1-3.8,1.2-5.6l-0.5-1.1l0.5-0.5l6,0.7L306.9,263.5z M317.6,257.8l-0.4-1l0.5-0.5l5.2,0.7l-0.2,2.2v32.5
			l-0.1,1.5l-3.8,0.9l-1.1-0.3L317.6,257.8L317.6,257.8L317.6,257.8z"/>
	</g>
	<g class="st1">
		<path class="st2" d="M175.1,544.2l-1.6-3.9l0.7-0.5c0.2,0,0.6,0,1.2,0.1c0.6,0,1,0,1.4,0h11l2.6-0.2l1.6,3.3
			c-0.6,1.2-1.2,2.4-2,3.5s-1.6,2.2-2.6,3.3c1.2,0.5,2.3,1.1,3.4,1.7c1.1,0.6,2.1,1.3,3,2v5l-1.8,0.4c-1.1-1.2-2.2-2.2-3.5-3.2
			c-1.3-1-2.6-1.9-4.1-2.8c-1.6,1.4-3.3,2.8-5.1,4c-1.8,1.2-3.6,2.3-5.4,3.2l-2.1-1.3l0.1-1c2.6-1.9,5.1-4,7.4-6.3
			c2.3-2.3,4.3-4.8,5.9-7.4l-8.8,0.1L175.1,544.2z M181,566l-1.4,0.2l-1.6-3.8l0.6-0.5c0.2,0,0.6,0,1.2,0.1c0.6,0,1,0,1.4,0h20
			l1.6,0.9v10.4l-0.1,1.5l-3.8,0.8l-1-0.2V566L181,566L181,566z M202.8,546.6h3l2.4-0.2l1.6,3.7l-0.9,0.7h-6v7.4l-0.1,1.4l-3.8,0.9
			l-1.1-0.2v-22.1l-0.4-1l0.5-0.5l5.2,0.7l-0.2,2.2L202.8,546.6L202.8,546.6L202.8,546.6z"/>
	</g>
</g>
</svg>
